<?xml version="1.0" encoding="utf-8"?>
<!-- Generator: Adobe Illustrator 16.0.0, SVG Export Plug-In . SVG Version: 6.00 Build 0)  -->
<!DOCTYPE svg PUBLIC "-//W3C//DTD SVG 1.1//EN" "http://www.w3.org/Graphics/SVG/1.1/DTD/svg11.dtd">
<svg version="1.1" id="Layer_1" xmlns="http://www.w3.org/2000/svg" xmlns:xlink="http://www.w3.org/1999/xlink" x="0px" y="0px"
	 width="558px" height="475px" viewBox="0 0 558 475" enable-background="new 0 0 558 475" xml:space="preserve">
<g>
	<path fill="#FFFFFF" d="M278.496-0.121c-92.946,0-168.293,73.527-168.293,164.228c0,29.766,8.115,57.683,22.304,81.757
		c13.989-12.19,32.594-19.627,53.019-19.627c10.016,0,19.584,1.807,28.396,5.066c-11.314-13.445-18.1-30.519-18.1-49.115
		c0-43.33,36.761-78.455,82.107-78.455c45.346,0,82.106,35.125,82.106,78.455c0,18.395-6.643,35.297-17.737,48.675
		c8.484-2.99,17.655-4.626,27.228-4.626c21.046,0,40.146,7.909,54.269,20.767c14.609-24.333,22.994-52.657,22.994-82.896
		C446.789,73.406,371.441-0.121,278.496-0.121z"/>
</g>
<path fill="#FFFFFF" d="M389.496,144.879c-12.786,0-25.233,1.405-37.203,4.042c4.958,10.102,7.743,21.371,7.743,33.266
	c0,18.401-6.647,35.31-17.75,48.689c8.488-2.996,17.661-4.641,27.24-4.641c43.466,0,78.703,33.67,78.703,75.203
	c0,41.534-35.237,75.203-78.703,75.203c-24.723,0-46.772-10.901-61.201-27.938c-0.02,6.963-0.127,13.924-0.325,20.885v83.199
	c24.149,13.073,51.923,20.545,81.496,20.545c92.945,0,168.293-73.527,168.293-164.228S482.441,144.879,389.496,144.879z"/>
<path fill="#FFFFFF" d="M185.526,376.643c-43.467,0-78.704-33.669-78.704-75.203c0-41.533,35.237-75.203,78.704-75.203
	c10.012,0,19.582,1.795,28.387,5.055c-11.309-13.444-18.091-30.513-18.091-49.104c0-11.7,2.7-22.791,7.506-32.765
	c-11.239-2.312-22.887-3.544-34.832-3.544c-92.946,0-168.293,73.527-168.293,164.228S75.55,474.334,168.496,474.334
	c27.549,0,53.551-6.461,76.504-17.912v-105.76C230.569,366.568,209.286,376.643,185.526,376.643z"/>
</svg>
